<svg xmlns="http://www.w3.org/2000/svg" xmlns:xlink="http://www.w3.org/1999/xlink" zoomAndPan="magnify" viewBox="0 0 375 374.999991" height="500" preserveAspectRatio="xMidYMid meet" version="1.2"><defs><clipPath id="f94fc35c6f"><path d="M 16.363281 0 L 358.363281 0 L 358.363281 375 L 16.363281 375 Z M 16.363281 0 "/></clipPath></defs><g id="af390c2a0a"><rect x="0" y="0" height="374.999991" style="fill:#ffffff;fill-opacity:1;stroke:none;"/><rect x="0" y="0" height="374.999991" style="fill:#ffffff;fill-opacity:1;stroke:none;"/><g clip-rule="nonzero" clip-path="url(#f94fc35c6f)"><path style=" stroke:none;fill-rule:nonzero;fill:#363636;fill-opacity:1;" d="M 342.078125 65.210938 L 268.792969 65.210938 L 268.792969 53.726562 C 268.789062 51.972656 268.699219 50.21875 268.527344 48.472656 C 268.351562 46.722656 268.09375 44.988281 267.746094 43.265625 C 267.402344 41.542969 266.976562 39.839844 266.464844 38.160156 C 265.953125 36.480469 265.359375 34.828125 264.6875 33.207031 C 264.011719 31.582031 263.261719 29.996094 262.433594 28.449219 C 261.601562 26.898438 260.699219 25.394531 259.722656 23.933594 C 258.746094 22.472656 257.703125 21.066406 256.585938 19.707031 C 255.472656 18.351562 254.292969 17.050781 253.050781 15.808594 C 251.808594 14.566406 250.507812 13.386719 249.152344 12.273438 C 247.792969 11.15625 246.382812 10.113281 244.925781 9.136719 C 243.464844 8.160156 241.960938 7.253906 240.410156 6.425781 C 238.863281 5.597656 237.277344 4.847656 235.652344 4.171875 C 234.03125 3.5 232.378906 2.90625 230.699219 2.394531 C 229.019531 1.882812 227.316406 1.457031 225.59375 1.109375 C 223.871094 0.765625 222.136719 0.507812 220.386719 0.332031 C 218.640625 0.15625 216.886719 0.0703125 215.128906 0.0664062 L 159.597656 0.0664062 C 157.839844 0.0703125 156.085938 0.15625 154.339844 0.332031 C 152.589844 0.507812 150.855469 0.765625 149.132812 1.109375 C 147.410156 1.457031 145.710938 1.882812 144.027344 2.394531 C 142.347656 2.90625 140.695312 3.5 139.074219 4.171875 C 137.453125 4.847656 135.867188 5.597656 134.316406 6.425781 C 132.769531 7.253906 131.261719 8.160156 129.804688 9.136719 C 128.34375 10.113281 126.933594 11.15625 125.574219 12.273438 C 124.21875 13.386719 122.917969 14.566406 121.675781 15.808594 C 120.433594 17.050781 119.253906 18.351562 118.140625 19.707031 C 117.027344 21.066406 115.980469 22.472656 115.003906 23.933594 C 114.027344 25.394531 113.125 26.898438 112.296875 28.449219 C 111.464844 29.996094 110.714844 31.582031 110.042969 33.207031 C 109.367188 34.828125 108.777344 36.480469 108.265625 38.160156 C 107.753906 39.839844 107.324219 41.542969 106.980469 43.265625 C 106.636719 44.988281 106.375 46.722656 106.199219 48.472656 C 106.027344 50.21875 105.9375 51.972656 105.933594 53.726562 L 105.933594 65.210938 L 32.648438 65.210938 C 32.117188 65.210938 31.582031 65.234375 31.054688 65.289062 C 30.523438 65.339844 29.996094 65.417969 29.472656 65.523438 C 28.949219 65.625 28.433594 65.757812 27.921875 65.910156 C 27.410156 66.066406 26.910156 66.246094 26.417969 66.449219 C 25.925781 66.652344 25.441406 66.882812 24.972656 67.132812 C 24.5 67.382812 24.046875 67.65625 23.601562 67.953125 C 23.15625 68.25 22.730469 68.566406 22.316406 68.90625 C 21.90625 69.246094 21.511719 69.601562 21.132812 69.980469 C 20.757812 70.355469 20.398438 70.75 20.058594 71.164062 C 19.722656 71.574219 19.40625 72.003906 19.109375 72.449219 C 18.8125 72.890625 18.539062 73.347656 18.285156 73.816406 C 18.035156 74.289062 17.808594 74.769531 17.601562 75.261719 C 17.398438 75.753906 17.21875 76.257812 17.066406 76.769531 C 16.910156 77.277344 16.78125 77.792969 16.675781 78.316406 C 16.574219 78.839844 16.496094 79.367188 16.441406 79.898438 C 16.390625 80.429688 16.363281 80.960938 16.363281 81.496094 C 16.363281 82.027344 16.390625 82.5625 16.441406 83.089844 C 16.496094 83.621094 16.574219 84.148438 16.675781 84.671875 C 16.78125 85.195312 16.910156 85.710938 17.066406 86.222656 C 17.21875 86.734375 17.398438 87.234375 17.601562 87.726562 C 17.808594 88.21875 18.035156 88.703125 18.285156 89.171875 C 18.539062 89.644531 18.8125 90.097656 19.109375 90.542969 C 19.40625 90.988281 19.722656 91.414062 20.058594 91.828125 C 20.398438 92.238281 20.757812 92.632812 21.132812 93.011719 C 21.511719 93.386719 21.90625 93.746094 22.316406 94.085938 C 22.730469 94.421875 23.15625 94.738281 23.601562 95.035156 C 24.046875 95.332031 24.5 95.605469 24.972656 95.859375 C 25.441406 96.109375 25.925781 96.335938 26.417969 96.542969 C 26.910156 96.746094 27.410156 96.925781 27.921875 97.078125 C 28.433594 97.234375 28.949219 97.363281 29.472656 97.46875 C 29.996094 97.570312 30.523438 97.648438 31.054688 97.703125 C 31.582031 97.753906 32.117188 97.78125 32.648438 97.78125 L 57.078125 97.78125 L 57.078125 320.730469 C 57.082031 322.5 57.167969 324.261719 57.34375 326.019531 C 57.519531 327.777344 57.78125 329.519531 58.128906 331.253906 C 58.476562 332.984375 58.90625 334.695312 59.421875 336.386719 C 59.9375 338.074219 60.53125 339.734375 61.210938 341.367188 C 61.886719 343 62.644531 344.59375 63.480469 346.148438 C 64.3125 347.707031 65.222656 349.21875 66.203125 350.6875 C 67.1875 352.15625 68.238281 353.570312 69.363281 354.933594 C 70.484375 356.300781 71.667969 357.605469 72.917969 358.855469 C 74.167969 360.101562 75.476562 361.285156 76.84375 362.40625 C 78.210938 363.527344 79.628906 364.574219 81.097656 365.554688 C 82.566406 366.535156 84.078125 367.441406 85.636719 368.273438 C 87.195312 369.105469 88.792969 369.859375 90.425781 370.535156 C 92.054688 371.210938 93.71875 371.804688 95.40625 372.316406 C 97.097656 372.832031 98.808594 373.257812 100.542969 373.601562 C 102.273438 373.945312 104.019531 374.207031 105.777344 374.378906 C 107.535156 374.550781 109.296875 374.636719 111.066406 374.636719 L 263.742188 374.636719 C 265.507812 374.636719 267.269531 374.546875 269.023438 374.371094 C 270.78125 374.195312 272.523438 373.933594 274.253906 373.589844 C 275.984375 373.242188 277.695312 372.8125 279.382812 372.296875 C 281.070312 371.785156 282.730469 371.191406 284.359375 370.511719 C 285.988281 369.835938 287.582031 369.082031 289.136719 368.25 C 290.695312 367.417969 292.207031 366.507812 293.671875 365.527344 C 295.140625 364.546875 296.554688 363.496094 297.917969 362.378906 C 299.28125 361.257812 300.589844 360.074219 301.835938 358.824219 C 303.085938 357.578125 304.269531 356.273438 305.386719 354.90625 C 306.507812 353.542969 307.558594 352.128906 308.539062 350.660156 C 309.519531 349.195312 310.425781 347.683594 311.261719 346.128906 C 312.09375 344.570312 312.847656 342.976562 313.523438 341.347656 C 314.199219 339.71875 314.796875 338.058594 315.308594 336.371094 C 315.824219 334.683594 316.253906 332.972656 316.601562 331.242188 C 316.945312 329.511719 317.207031 327.769531 317.382812 326.011719 C 317.558594 324.257812 317.648438 322.496094 317.648438 320.730469 L 317.648438 97.78125 L 342.078125 97.78125 C 342.609375 97.78125 343.144531 97.753906 343.675781 97.703125 C 344.203125 97.648438 344.730469 97.570312 345.253906 97.46875 C 345.777344 97.363281 346.296875 97.234375 346.804688 97.078125 C 347.316406 96.925781 347.816406 96.746094 348.308594 96.542969 C 348.804688 96.335938 349.285156 96.109375 349.753906 95.859375 C 350.226562 95.605469 350.683594 95.332031 351.125 95.035156 C 351.570312 94.738281 351.996094 94.421875 352.410156 94.085938 C 352.820312 93.746094 353.214844 93.386719 353.59375 93.011719 C 353.972656 92.632812 354.328125 92.238281 354.667969 91.828125 C 355.003906 91.414062 355.324219 90.988281 355.617188 90.542969 C 355.914062 90.097656 356.1875 89.644531 356.441406 89.171875 C 356.691406 88.703125 356.917969 88.21875 357.125 87.726562 C 357.328125 87.234375 357.507812 86.734375 357.664062 86.222656 C 357.816406 85.710938 357.945312 85.195312 358.050781 84.671875 C 358.15625 84.148438 358.234375 83.621094 358.285156 83.089844 C 358.335938 82.5625 358.363281 82.027344 358.363281 81.496094 C 358.363281 80.960938 358.335938 80.429688 358.285156 79.898438 C 358.234375 79.367188 358.15625 78.839844 358.050781 78.316406 C 357.945312 77.792969 357.816406 77.277344 357.664062 76.769531 C 357.507812 76.257812 357.328125 75.753906 357.125 75.261719 C 356.917969 74.769531 356.691406 74.289062 356.441406 73.816406 C 356.1875 73.347656 355.914062 72.890625 355.617188 72.449219 C 355.324219 72.003906 355.003906 71.574219 354.667969 71.164062 C 354.328125 70.75 353.972656 70.355469 353.59375 69.980469 C 353.214844 69.601562 352.820312 69.246094 352.410156 68.90625 C 351.996094 68.566406 351.570312 68.25 351.125 67.953125 C 350.683594 67.65625 350.226562 67.382812 349.753906 67.132812 C 349.285156 66.882812 348.804688 66.652344 348.308594 66.449219 C 347.816406 66.246094 347.316406 66.066406 346.804688 65.910156 C 346.296875 65.757812 345.777344 65.625 345.253906 65.523438 C 344.730469 65.417969 344.203125 65.339844 343.675781 65.289062 C 343.144531 65.234375 342.609375 65.210938 342.078125 65.210938 Z M 138.507812 53.726562 C 138.507812 53.039062 138.539062 52.347656 138.609375 51.660156 C 138.675781 50.972656 138.777344 50.292969 138.910156 49.613281 C 139.046875 48.9375 139.214844 48.265625 139.414062 47.605469 C 139.613281 46.945312 139.847656 46.296875 140.113281 45.65625 C 140.375 45.019531 140.671875 44.394531 140.996094 43.785156 C 141.324219 43.175781 141.675781 42.585938 142.0625 42.011719 C 142.445312 41.4375 142.855469 40.882812 143.292969 40.347656 C 143.730469 39.816406 144.195312 39.304688 144.683594 38.816406 C 145.171875 38.328125 145.683594 37.863281 146.21875 37.425781 C 146.75 36.988281 147.304688 36.574219 147.878906 36.191406 C 148.453125 35.808594 149.046875 35.453125 149.65625 35.128906 C 150.265625 34.800781 150.886719 34.507812 151.527344 34.242188 C 152.164062 33.980469 152.8125 33.746094 153.472656 33.546875 C 154.136719 33.34375 154.804688 33.179688 155.480469 33.042969 C 156.160156 32.910156 156.84375 32.808594 157.53125 32.738281 C 158.214844 32.671875 158.90625 32.636719 159.597656 32.636719 L 215.128906 32.636719 C 215.820312 32.636719 216.511719 32.671875 217.199219 32.738281 C 217.886719 32.808594 218.566406 32.910156 219.246094 33.042969 C 219.921875 33.179688 220.59375 33.34375 221.253906 33.546875 C 221.914062 33.746094 222.5625 33.980469 223.203125 34.242188 C 223.839844 34.507812 224.464844 34.804688 225.074219 35.128906 C 225.683594 35.453125 226.273438 35.808594 226.847656 36.191406 C 227.421875 36.574219 227.976562 36.988281 228.511719 37.425781 C 229.042969 37.863281 229.554688 38.328125 230.042969 38.816406 C 230.53125 39.304688 230.996094 39.816406 231.433594 40.347656 C 231.871094 40.882812 232.28125 41.4375 232.667969 42.011719 C 233.050781 42.585938 233.40625 43.175781 233.730469 43.785156 C 234.054688 44.394531 234.351562 45.019531 234.617188 45.65625 C 234.878906 46.296875 235.113281 46.945312 235.3125 47.605469 C 235.511719 48.265625 235.679688 48.9375 235.816406 49.613281 C 235.949219 50.292969 236.050781 50.972656 236.121094 51.660156 C 236.1875 52.347656 236.222656 53.039062 236.222656 53.726562 L 236.222656 65.210938 L 138.507812 65.210938 Z M 285.078125 320.730469 C 285.074219 321.429688 285.039062 322.125 284.96875 322.820312 C 284.898438 323.515625 284.792969 324.203125 284.65625 324.890625 C 284.515625 325.574219 284.34375 326.25 284.140625 326.917969 C 283.9375 327.582031 283.699219 328.238281 283.433594 328.882812 C 283.164062 329.527344 282.863281 330.15625 282.535156 330.773438 C 282.203125 331.386719 281.847656 331.984375 281.457031 332.566406 C 281.070312 333.144531 280.652344 333.707031 280.210938 334.246094 C 279.765625 334.785156 279.300781 335.300781 278.804688 335.792969 C 278.3125 336.289062 277.796875 336.757812 277.257812 337.199219 C 276.71875 337.640625 276.15625 338.058594 275.578125 338.445312 C 274.996094 338.835938 274.398438 339.195312 273.785156 339.523438 C 273.167969 339.851562 272.539062 340.152344 271.894531 340.421875 C 271.25 340.6875 270.59375 340.925781 269.925781 341.128906 C 269.261719 341.335938 268.585938 341.503906 267.898438 341.644531 C 267.214844 341.78125 266.527344 341.886719 265.832031 341.957031 C 265.136719 342.027344 264.441406 342.0625 263.742188 342.066406 L 111.066406 342.066406 C 110.367188 342.066406 109.667969 342.03125 108.972656 341.964844 C 108.273438 341.894531 107.582031 341.792969 106.898438 341.65625 C 106.210938 341.519531 105.53125 341.351562 104.863281 341.148438 C 104.191406 340.945312 103.535156 340.710938 102.886719 340.445312 C 102.242188 340.175781 101.609375 339.878906 100.992188 339.550781 C 100.375 339.222656 99.773438 338.863281 99.191406 338.472656 C 98.609375 338.085938 98.046875 337.671875 97.507812 337.226562 C 96.964844 336.785156 96.445312 336.316406 95.949219 335.824219 C 95.453125 335.328125 94.984375 334.8125 94.539062 334.273438 C 94.09375 333.734375 93.675781 333.171875 93.285156 332.589844 C 92.898438 332.011719 92.535156 331.410156 92.203125 330.796875 C 91.871094 330.179688 91.574219 329.546875 91.304688 328.902344 C 91.035156 328.257812 90.796875 327.601562 90.589844 326.929688 C 90.386719 326.261719 90.214844 325.585938 90.074219 324.898438 C 89.9375 324.214844 89.832031 323.523438 89.761719 322.824219 C 89.6875 322.128906 89.652344 321.433594 89.648438 320.730469 L 89.648438 97.78125 L 285.078125 97.78125 Z M 285.078125 320.730469 "/></g><path style=" stroke:none;fill-rule:nonzero;fill:#363636;fill-opacity:1;" d="M 146.648438 134.34375 C 146.117188 134.34375 145.582031 134.367188 145.054688 134.421875 C 144.523438 134.472656 143.996094 134.550781 143.472656 134.65625 C 142.949219 134.757812 142.433594 134.890625 141.921875 135.042969 C 141.410156 135.199219 140.910156 135.378906 140.417969 135.582031 C 139.925781 135.785156 139.441406 136.015625 138.972656 136.265625 C 138.5 136.515625 138.046875 136.789062 137.601562 137.085938 C 137.15625 137.382812 136.730469 137.699219 136.316406 138.039062 C 135.90625 138.378906 135.511719 138.734375 135.132812 139.113281 C 134.757812 139.488281 134.398438 139.882812 134.058594 140.296875 C 133.722656 140.707031 133.40625 141.136719 133.109375 141.582031 C 132.8125 142.023438 132.539062 142.480469 132.285156 142.949219 C 132.035156 143.421875 131.808594 143.902344 131.601562 144.394531 C 131.398438 144.886719 131.21875 145.390625 131.066406 145.902344 C 130.910156 146.410156 130.78125 146.929688 130.675781 147.449219 C 130.574219 147.972656 130.496094 148.5 130.441406 149.03125 C 130.390625 149.5625 130.363281 150.09375 130.363281 150.628906 L 130.363281 297.199219 C 130.363281 297.734375 130.390625 298.265625 130.441406 298.796875 C 130.496094 299.328125 130.574219 299.851562 130.675781 300.375 C 130.78125 300.898438 130.910156 301.417969 131.066406 301.925781 C 131.21875 302.4375 131.398438 302.9375 131.601562 303.433594 C 131.808594 303.925781 132.035156 304.40625 132.285156 304.875 C 132.539062 305.347656 132.8125 305.804688 133.109375 306.246094 C 133.40625 306.691406 133.722656 307.117188 134.058594 307.53125 C 134.398438 307.941406 134.757812 308.339844 135.132812 308.714844 C 135.511719 309.09375 135.90625 309.449219 136.316406 309.789062 C 136.730469 310.125 137.15625 310.445312 137.601562 310.742188 C 138.046875 311.035156 138.5 311.3125 138.972656 311.5625 C 139.441406 311.8125 139.925781 312.042969 140.417969 312.246094 C 140.910156 312.449219 141.410156 312.628906 141.921875 312.785156 C 142.433594 312.9375 142.949219 313.066406 143.472656 313.171875 C 143.996094 313.277344 144.523438 313.355469 145.054688 313.40625 C 145.582031 313.460938 146.117188 313.484375 146.648438 313.484375 C 147.183594 313.484375 147.714844 313.460938 148.246094 313.40625 C 148.777344 313.355469 149.304688 313.277344 149.828125 313.171875 C 150.351562 313.066406 150.867188 312.9375 151.375 312.785156 C 151.886719 312.628906 152.390625 312.449219 152.882812 312.246094 C 153.375 312.042969 153.855469 311.8125 154.328125 311.5625 C 154.796875 311.3125 155.253906 311.035156 155.695312 310.742188 C 156.140625 310.445312 156.570312 310.125 156.980469 309.789062 C 157.394531 309.449219 157.789062 309.09375 158.164062 308.714844 C 158.542969 308.339844 158.898438 307.941406 159.238281 307.53125 C 159.578125 307.117188 159.894531 306.691406 160.191406 306.246094 C 160.488281 305.804688 160.761719 305.347656 161.011719 304.875 C 161.261719 304.40625 161.492188 303.925781 161.695312 303.433594 C 161.898438 302.9375 162.078125 302.4375 162.234375 301.925781 C 162.386719 301.417969 162.519531 300.898438 162.621094 300.375 C 162.726562 299.851562 162.804688 299.328125 162.855469 298.796875 C 162.910156 298.265625 162.933594 297.734375 162.933594 297.199219 L 162.933594 150.628906 C 162.933594 150.09375 162.910156 149.5625 162.855469 149.03125 C 162.804688 148.5 162.726562 147.972656 162.621094 147.449219 C 162.519531 146.929688 162.386719 146.410156 162.234375 145.902344 C 162.078125 145.390625 161.898438 144.886719 161.695312 144.394531 C 161.492188 143.902344 161.261719 143.421875 161.011719 142.949219 C 160.761719 142.480469 160.488281 142.023438 160.191406 141.582031 C 159.894531 141.136719 159.578125 140.707031 159.238281 140.296875 C 158.898438 139.882812 158.542969 139.488281 158.164062 139.113281 C 157.789062 138.734375 157.394531 138.378906 156.980469 138.039062 C 156.570312 137.699219 156.140625 137.382812 155.695312 137.085938 C 155.253906 136.789062 154.796875 136.515625 154.328125 136.265625 C 153.855469 136.015625 153.375 135.785156 152.882812 135.582031 C 152.390625 135.378906 151.886719 135.199219 151.375 135.042969 C 150.867188 134.890625 150.351562 134.757812 149.828125 134.65625 C 149.304688 134.550781 148.777344 134.472656 148.246094 134.421875 C 147.714844 134.367188 147.183594 134.34375 146.648438 134.34375 Z M 146.648438 134.34375 "/><path style=" stroke:none;fill-rule:nonzero;fill:#363636;fill-opacity:1;" d="M 228.078125 134.34375 C 227.542969 134.34375 227.011719 134.367188 226.480469 134.421875 C 225.949219 134.472656 225.425781 134.550781 224.902344 134.65625 C 224.378906 134.757812 223.859375 134.890625 223.351562 135.042969 C 222.839844 135.199219 222.339844 135.378906 221.84375 135.582031 C 221.351562 135.785156 220.871094 136.015625 220.402344 136.265625 C 219.929688 136.515625 219.472656 136.789062 219.03125 137.085938 C 218.585938 137.382812 218.160156 137.699219 217.746094 138.039062 C 217.335938 138.378906 216.9375 138.734375 216.5625 139.113281 C 216.183594 139.488281 215.828125 139.882812 215.488281 140.296875 C 215.152344 140.707031 214.832031 141.136719 214.535156 141.582031 C 214.242188 142.023438 213.964844 142.480469 213.714844 142.949219 C 213.464844 143.421875 213.234375 143.902344 213.03125 144.394531 C 212.828125 144.886719 212.648438 145.390625 212.492188 145.902344 C 212.339844 146.410156 212.210938 146.929688 212.105469 147.449219 C 212 147.972656 211.921875 148.5 211.871094 149.03125 C 211.816406 149.5625 211.792969 150.09375 211.792969 150.628906 L 211.792969 297.199219 C 211.792969 297.734375 211.816406 298.265625 211.871094 298.796875 C 211.921875 299.328125 212 299.851562 212.105469 300.375 C 212.210938 300.898438 212.339844 301.417969 212.492188 301.925781 C 212.648438 302.4375 212.828125 302.9375 213.03125 303.433594 C 213.234375 303.925781 213.464844 304.40625 213.714844 304.875 C 213.964844 305.347656 214.242188 305.804688 214.535156 306.246094 C 214.832031 306.691406 215.152344 307.117188 215.488281 307.53125 C 215.828125 307.941406 216.183594 308.339844 216.5625 308.714844 C 216.9375 309.09375 217.335938 309.449219 217.746094 309.789062 C 218.160156 310.125 218.585938 310.445312 219.03125 310.742188 C 219.472656 311.035156 219.929688 311.3125 220.402344 311.5625 C 220.871094 311.8125 221.351562 312.042969 221.84375 312.246094 C 222.339844 312.449219 222.839844 312.628906 223.351562 312.785156 C 223.859375 312.9375 224.378906 313.066406 224.902344 313.171875 C 225.425781 313.277344 225.949219 313.355469 226.480469 313.40625 C 227.011719 313.460938 227.542969 313.484375 228.078125 313.484375 C 228.609375 313.484375 229.144531 313.460938 229.675781 313.40625 C 230.203125 313.355469 230.730469 313.277344 231.253906 313.171875 C 231.777344 313.066406 232.296875 312.9375 232.804688 312.785156 C 233.316406 312.628906 233.816406 312.449219 234.308594 312.246094 C 234.804688 312.042969 235.285156 311.8125 235.753906 311.5625 C 236.226562 311.3125 236.683594 311.035156 237.125 310.742188 C 237.570312 310.445312 237.996094 310.125 238.410156 309.789062 C 238.820312 309.449219 239.214844 309.09375 239.59375 308.714844 C 239.972656 308.339844 240.328125 307.941406 240.667969 307.53125 C 241.003906 307.117188 241.324219 306.691406 241.617188 306.246094 C 241.914062 305.804688 242.1875 305.347656 242.441406 304.875 C 242.691406 304.40625 242.917969 303.925781 243.125 303.433594 C 243.328125 302.9375 243.507812 302.4375 243.664062 301.925781 C 243.816406 301.417969 243.945312 300.898438 244.050781 300.375 C 244.15625 299.851562 244.234375 299.328125 244.285156 298.796875 C 244.335938 298.265625 244.363281 297.734375 244.363281 297.199219 L 244.363281 150.628906 C 244.363281 150.09375 244.335938 149.5625 244.285156 149.03125 C 244.234375 148.5 244.15625 147.972656 244.050781 147.449219 C 243.945312 146.929688 243.816406 146.410156 243.664062 145.902344 C 243.507812 145.390625 243.328125 144.886719 243.125 144.394531 C 242.917969 143.902344 242.691406 143.421875 242.441406 142.949219 C 242.1875 142.480469 241.914062 142.023438 241.617188 141.582031 C 241.324219 141.136719 241.003906 140.707031 240.667969 140.296875 C 240.328125 139.882812 239.972656 139.488281 239.59375 139.113281 C 239.214844 138.734375 238.820312 138.378906 238.410156 138.039062 C 237.996094 137.699219 237.570312 137.382812 237.125 137.085938 C 236.683594 136.789062 236.226562 136.515625 235.753906 136.265625 C 235.285156 136.015625 234.804688 135.785156 234.308594 135.582031 C 233.816406 135.378906 233.316406 135.199219 232.804688 135.042969 C 232.296875 134.890625 231.777344 134.757812 231.253906 134.65625 C 230.730469 134.550781 230.203125 134.472656 229.675781 134.421875 C 229.144531 134.367188 228.609375 134.34375 228.078125 134.34375 Z M 228.078125 134.34375 "/></g></svg>