<svg xmlns="http://www.w3.org/2000/svg" xmlns:xlink="http://www.w3.org/1999/xlink" zoomAndPan="magnify" viewBox="0 0 375 374.999991" height="500" preserveAspectRatio="xMidYMid meet" version="1.2"><defs><clipPath id="359466642b"><path d="M 25.078125 0 L 349.828125 0 L 349.828125 375 L 25.078125 375 Z M 25.078125 0 "/></clipPath></defs><g id="605d4c7a6c"><rect x="0" y="0" height="374.999991" style="fill:#ffffff;fill-opacity:1;stroke:none;"/><rect x="0" y="0" height="374.999991" style="fill:#ffffff;fill-opacity:1;stroke:none;"/><g clip-rule="nonzero" clip-path="url(#359466642b)"><path style=" stroke:none;fill-rule:nonzero;fill:#363636;fill-opacity:1;" d="M 25.078125 337.332031 C 25.078125 338.558594 25.136719 339.78125 25.257812 341.003906 C 25.378906 342.226562 25.558594 343.4375 25.796875 344.640625 C 26.039062 345.84375 26.335938 347.035156 26.691406 348.207031 C 27.046875 349.382812 27.460938 350.535156 27.929688 351.671875 C 28.398438 352.804688 28.925781 353.910156 29.503906 354.996094 C 30.082031 356.078125 30.710938 357.128906 31.394531 358.148438 C 32.074219 359.167969 32.804688 360.152344 33.582031 361.101562 C 34.363281 362.050781 35.183594 362.957031 36.054688 363.828125 C 36.921875 364.695312 37.828125 365.515625 38.777344 366.296875 C 39.726562 367.074219 40.710938 367.804688 41.730469 368.488281 C 42.75 369.167969 43.804688 369.796875 44.886719 370.378906 C 45.96875 370.957031 47.074219 371.480469 48.210938 371.949219 C 49.34375 372.417969 50.496094 372.832031 51.671875 373.1875 C 52.847656 373.542969 54.035156 373.84375 55.238281 374.082031 C 56.441406 374.320312 57.65625 374.5 58.875 374.621094 C 60.097656 374.742188 61.320312 374.800781 62.550781 374.800781 L 237.414062 374.800781 C 238.640625 374.800781 239.867188 374.742188 241.085938 374.621094 C 242.308594 374.5 243.519531 374.320312 244.726562 374.082031 C 245.929688 373.84375 247.117188 373.542969 248.292969 373.1875 C 249.464844 372.832031 250.621094 372.417969 251.753906 371.949219 C 252.886719 371.480469 253.996094 370.957031 255.078125 370.378906 C 256.160156 369.796875 257.210938 369.167969 258.234375 368.488281 C 259.253906 367.804688 260.238281 367.074219 261.1875 366.296875 C 262.136719 365.515625 263.042969 364.695312 263.910156 363.828125 C 264.777344 362.957031 265.601562 362.050781 266.378906 361.101562 C 267.160156 360.152344 267.890625 359.167969 268.570312 358.148438 C 269.253906 357.128906 269.882812 356.078125 270.460938 354.996094 C 271.039062 353.910156 271.5625 352.804688 272.035156 351.671875 C 272.503906 350.535156 272.917969 349.382812 273.273438 348.207031 C 273.628906 347.035156 273.925781 345.84375 274.164062 344.640625 C 274.40625 343.4375 274.585938 342.226562 274.707031 341.003906 C 274.824219 339.78125 274.886719 338.558594 274.886719 337.332031 L 274.886719 324.839844 L 312.355469 324.839844 C 313.585938 324.839844 314.808594 324.78125 316.03125 324.660156 C 317.25 324.539062 318.464844 324.359375 319.667969 324.121094 C 320.871094 323.878906 322.058594 323.582031 323.234375 323.226562 C 324.410156 322.871094 325.5625 322.457031 326.695312 321.988281 C 327.832031 321.519531 328.9375 320.992188 330.019531 320.414062 C 331.101562 319.835938 332.15625 319.207031 333.175781 318.523438 C 334.195312 317.84375 335.179688 317.113281 336.128906 316.335938 C 337.078125 315.554688 337.984375 314.734375 338.851562 313.863281 C 339.722656 312.996094 340.542969 312.089844 341.324219 311.140625 C 342.101562 310.191406 342.832031 309.207031 343.511719 308.1875 C 344.195312 307.167969 344.824219 306.113281 345.402344 305.03125 C 345.980469 303.949219 346.507812 302.84375 346.976562 301.707031 C 347.445312 300.574219 347.859375 299.421875 348.214844 298.246094 C 348.570312 297.070312 348.867188 295.882812 349.109375 294.679688 C 349.347656 293.476562 349.527344 292.261719 349.648438 291.042969 C 349.769531 289.820312 349.828125 288.597656 349.828125 287.367188 L 349.828125 37.5625 C 349.828125 36.335938 349.769531 35.109375 349.648438 33.886719 C 349.527344 32.667969 349.347656 31.453125 349.109375 30.25 C 348.867188 29.046875 348.570312 27.859375 348.214844 26.683594 C 347.859375 25.507812 347.445312 24.355469 346.976562 23.222656 C 346.507812 22.085938 345.980469 20.980469 345.402344 19.898438 C 344.824219 18.816406 344.195312 17.765625 343.511719 16.742188 C 342.832031 15.722656 342.101562 14.738281 341.324219 13.789062 C 340.542969 12.839844 339.722656 11.933594 338.851562 11.066406 C 337.984375 10.199219 337.078125 9.375 336.128906 8.59375 C 335.179688 7.816406 334.195312 7.085938 333.175781 6.40625 C 332.15625 5.722656 331.101562 5.09375 330.019531 4.515625 C 328.9375 3.9375 327.832031 3.410156 326.695312 2.941406 C 325.5625 2.472656 324.410156 2.058594 323.234375 1.703125 C 322.058594 1.347656 320.871094 1.050781 319.667969 0.808594 C 318.464844 0.570312 317.25 0.390625 316.03125 0.269531 C 314.808594 0.148438 313.585938 0.0898438 312.355469 0.0898438 L 137.492188 0.0898438 C 136.265625 0.0898438 135.039062 0.148438 133.820312 0.269531 C 132.597656 0.390625 131.386719 0.570312 130.179688 0.808594 C 128.976562 1.050781 127.789062 1.347656 126.613281 1.703125 C 125.441406 2.058594 124.285156 2.472656 123.152344 2.941406 C 122.019531 3.410156 120.910156 3.9375 119.828125 4.515625 C 118.746094 5.09375 117.695312 5.722656 116.671875 6.40625 C 115.652344 7.085938 114.667969 7.816406 113.71875 8.59375 C 112.769531 9.375 111.863281 10.199219 110.996094 11.066406 C 110.128906 11.933594 109.304688 12.839844 108.527344 13.789062 C 107.746094 14.738281 107.015625 15.722656 106.335938 16.742188 C 105.652344 17.765625 105.023438 18.816406 104.445312 19.898438 C 103.867188 20.980469 103.34375 22.085938 102.871094 23.222656 C 102.402344 24.355469 101.988281 25.507812 101.632812 26.683594 C 101.277344 27.859375 100.980469 29.046875 100.742188 30.25 C 100.5 31.453125 100.320312 32.667969 100.199219 33.886719 C 100.082031 35.109375 100.019531 36.335938 100.019531 37.5625 L 100.019531 50.050781 L 62.550781 50.050781 C 61.320312 50.050781 60.097656 50.113281 58.875 50.230469 C 57.65625 50.351562 56.441406 50.53125 55.238281 50.773438 C 54.035156 51.011719 52.847656 51.308594 51.671875 51.664062 C 50.496094 52.019531 49.34375 52.433594 48.210938 52.902344 C 47.074219 53.375 45.96875 53.898438 44.886719 54.476562 C 43.804688 55.054688 42.75 55.683594 41.730469 56.367188 C 40.710938 57.046875 39.726562 57.777344 38.777344 58.558594 C 37.828125 59.335938 36.921875 60.160156 36.054688 61.027344 C 35.183594 61.894531 34.363281 62.800781 33.582031 63.75 C 32.804688 64.699219 32.074219 65.683594 31.394531 66.703125 C 30.710938 67.726562 30.082031 68.777344 29.503906 69.859375 C 28.925781 70.941406 28.398438 72.050781 27.929688 73.183594 C 27.460938 74.316406 27.046875 75.472656 26.691406 76.644531 C 26.335938 77.820312 26.039062 79.007812 25.796875 80.210938 C 25.558594 81.417969 25.378906 82.628906 25.257812 83.851562 C 25.136719 85.070312 25.078125 86.296875 25.078125 87.523438 Z M 125 37.5625 C 125 36.742188 125.082031 35.929688 125.242188 35.125 C 125.402344 34.320312 125.636719 33.539062 125.953125 32.78125 C 126.265625 32.023438 126.652344 31.304688 127.105469 30.621094 C 127.5625 29.941406 128.078125 29.308594 128.660156 28.730469 C 129.238281 28.148438 129.871094 27.632812 130.550781 27.175781 C 131.234375 26.71875 131.953125 26.335938 132.710938 26.023438 C 133.46875 25.707031 134.25 25.472656 135.054688 25.3125 C 135.859375 25.152344 136.671875 25.070312 137.492188 25.070312 L 312.355469 25.070312 C 313.175781 25.070312 313.988281 25.152344 314.792969 25.3125 C 315.597656 25.472656 316.378906 25.707031 317.136719 26.023438 C 317.894531 26.335938 318.613281 26.71875 319.296875 27.175781 C 319.976562 27.632812 320.609375 28.148438 321.1875 28.730469 C 321.769531 29.308594 322.285156 29.941406 322.742188 30.621094 C 323.199219 31.304688 323.582031 32.023438 323.898438 32.78125 C 324.210938 33.539062 324.449219 34.320312 324.605469 35.125 C 324.765625 35.929688 324.847656 36.742188 324.847656 37.5625 L 324.847656 287.367188 C 324.847656 288.1875 324.765625 289 324.605469 289.804688 C 324.449219 290.609375 324.210938 291.390625 323.898438 292.148438 C 323.582031 292.90625 323.199219 293.625 322.742188 294.308594 C 322.285156 294.988281 321.769531 295.621094 321.1875 296.199219 C 320.609375 296.78125 319.976562 297.296875 319.296875 297.753906 C 318.613281 298.210938 317.894531 298.59375 317.136719 298.910156 C 316.378906 299.222656 315.597656 299.460938 314.792969 299.621094 C 313.988281 299.78125 313.175781 299.859375 312.355469 299.859375 L 274.886719 299.859375 L 274.886719 87.523438 C 274.886719 86.296875 274.824219 85.070312 274.707031 83.851562 C 274.585938 82.628906 274.40625 81.417969 274.164062 80.210938 C 273.925781 79.007812 273.628906 77.820312 273.273438 76.644531 C 272.917969 75.472656 272.503906 74.316406 272.035156 73.183594 C 271.5625 72.050781 271.039062 70.941406 270.460938 69.859375 C 269.882812 68.777344 269.253906 67.726562 268.570312 66.703125 C 267.890625 65.683594 267.160156 64.699219 266.378906 63.75 C 265.601562 62.800781 264.777344 61.894531 263.910156 61.027344 C 263.042969 60.160156 262.136719 59.335938 261.1875 58.558594 C 260.238281 57.777344 259.253906 57.046875 258.234375 56.367188 C 257.210938 55.683594 256.160156 55.054688 255.078125 54.476562 C 253.996094 53.898438 252.886719 53.375 251.753906 52.902344 C 250.621094 52.433594 249.464844 52.019531 248.292969 51.664062 C 247.117188 51.308594 245.929688 51.011719 244.726562 50.773438 C 243.519531 50.53125 242.308594 50.351562 241.085938 50.230469 C 239.867188 50.113281 238.640625 50.050781 237.414062 50.050781 L 125 50.050781 Z M 50.058594 87.523438 C 50.058594 86.703125 50.140625 85.890625 50.300781 85.085938 C 50.457031 84.28125 50.695312 83.5 51.007812 82.742188 C 51.324219 81.984375 51.707031 81.265625 52.164062 80.582031 C 52.621094 79.902344 53.136719 79.269531 53.71875 78.691406 C 54.296875 78.109375 54.929688 77.59375 55.609375 77.136719 C 56.292969 76.683594 57.011719 76.296875 57.769531 75.984375 C 58.527344 75.667969 59.308594 75.433594 60.113281 75.273438 C 60.917969 75.113281 61.730469 75.03125 62.550781 75.03125 L 237.414062 75.03125 C 238.234375 75.03125 239.046875 75.113281 239.851562 75.273438 C 240.65625 75.433594 241.4375 75.667969 242.195312 75.984375 C 242.953125 76.296875 243.671875 76.683594 244.355469 77.136719 C 245.035156 77.59375 245.667969 78.109375 246.246094 78.691406 C 246.828125 79.269531 247.34375 79.902344 247.800781 80.582031 C 248.253906 81.265625 248.640625 81.984375 248.953125 82.742188 C 249.269531 83.5 249.503906 84.28125 249.664062 85.085938 C 249.824219 85.890625 249.90625 86.703125 249.90625 87.523438 L 249.90625 337.332031 C 249.90625 338.152344 249.824219 338.960938 249.664062 339.765625 C 249.503906 340.570312 249.269531 341.351562 248.953125 342.109375 C 248.640625 342.867188 248.253906 343.585938 247.800781 344.269531 C 247.34375 344.953125 246.828125 345.582031 246.246094 346.164062 C 245.667969 346.742188 245.035156 347.261719 244.355469 347.714844 C 243.671875 348.171875 242.953125 348.554688 242.195312 348.871094 C 241.4375 349.183594 240.65625 349.421875 239.851562 349.582031 C 239.046875 349.742188 238.234375 349.820312 237.414062 349.820312 L 62.550781 349.820312 C 61.730469 349.820312 60.917969 349.742188 60.113281 349.582031 C 59.308594 349.421875 58.527344 349.183594 57.769531 348.871094 C 57.011719 348.554688 56.292969 348.171875 55.609375 347.714844 C 54.929688 347.261719 54.296875 346.742188 53.71875 346.164062 C 53.136719 345.582031 52.621094 344.953125 52.164062 344.269531 C 51.707031 343.585938 51.324219 342.867188 51.007812 342.109375 C 50.695312 341.351562 50.457031 340.570312 50.300781 339.765625 C 50.140625 338.960938 50.058594 338.152344 50.058594 337.332031 Z M 50.058594 87.523438 "/></g></g></svg>