<svg xmlns="http://www.w3.org/2000/svg" xmlns:xlink="http://www.w3.org/1999/xlink" zoomAndPan="magnify" viewBox="0 0 375 374.999991" height="500" preserveAspectRatio="xMidYMid meet" version="1.2"><g id="a14273861e"><rect x="0" y="0" height="374.999991" style="fill:#ffffff;fill-opacity:1;stroke:none;"/><rect x="0" y="0" height="374.999991" style="fill:#ffffff;fill-opacity:1;stroke:none;"/><path style=" stroke:none;fill-rule:nonzero;fill:#363636;fill-opacity:1;" d="M 187.5 15 C 179.21875 15 172.5 21.71875 172.5 30 L 172.5 241.539062 L 123.132812 191.921875 C 117.292969 186.050781 107.796875 186.007812 101.921875 191.863281 C 96.058594 197.707031 96.023438 207.203125 101.863281 213.074219 L 176.863281 288.457031 C 179.683594 291.285156 183.511719 292.878906 187.5 292.878906 C 191.488281 292.878906 195.316406 291.292969 198.132812 288.457031 L 273.132812 213.074219 C 278.976562 207.203125 278.941406 197.707031 273.074219 191.863281 C 267.203125 186.015625 257.707031 186.058594 251.863281 191.921875 L 202.5 241.539062 L 202.5 30 C 202.5 21.71875 195.78125 15 187.5 15 Z M 15 240 C 6.71875 240 0 246.71875 0 255 L 0 315 C 0 339.816406 20.183594 360 45 360 L 330 360 C 354.816406 360 375 339.816406 375 315 L 375 255 C 375 246.71875 368.28125 240 360 240 C 351.71875 240 345 246.71875 345 255 L 345 315 C 345 323.273438 338.273438 330 330 330 L 45 330 C 36.726562 330 30 323.273438 30 315 L 30 255 C 30 246.71875 23.28125 240 15 240 Z M 15 240 "/></g></svg>