<svg xmlns="http://www.w3.org/2000/svg" xmlns:xlink="http://www.w3.org/1999/xlink" zoomAndPan="magnify" viewBox="0 0 375 374.999991" height="500" preserveAspectRatio="xMidYMid meet" version="1.2"><g id="d99d1b32c6"><rect x="0" y="0" height="374.999991" style="fill:#ffffff;fill-opacity:1;stroke:none;"/><rect x="0" y="0" height="374.999991" style="fill:#ffffff;fill-opacity:1;stroke:none;"/><path style=" stroke:none;fill-rule:nonzero;fill:#363636;fill-opacity:1;" d="M 375 236.25 L 375 299.15625 C 374.996094 300.871094 374.914062 302.582031 374.742188 304.289062 C 374.574219 305.996094 374.320312 307.691406 373.984375 309.375 C 373.648438 311.054688 373.230469 312.71875 372.730469 314.359375 C 372.230469 316 371.652344 317.613281 370.996094 319.199219 C 370.339844 320.78125 369.605469 322.332031 368.796875 323.84375 C 367.988281 325.355469 367.105469 326.824219 366.152344 328.25 C 365.199219 329.679688 364.175781 331.054688 363.089844 332.378906 C 362 333.707031 360.847656 334.976562 359.636719 336.1875 C 358.421875 337.402344 357.152344 338.550781 355.828125 339.640625 C 354.5 340.730469 353.125 341.75 351.699219 342.703125 C 350.273438 343.65625 348.804688 344.539062 347.292969 345.347656 C 345.777344 346.15625 344.230469 346.890625 342.644531 347.546875 C 341.0625 348.203125 339.449219 348.78125 337.804688 349.28125 C 336.164062 349.78125 334.503906 350.199219 332.820312 350.535156 C 331.140625 350.871094 329.445312 351.121094 327.738281 351.292969 C 326.03125 351.460938 324.320312 351.546875 322.601562 351.550781 L 52.394531 351.550781 C 50.679688 351.546875 48.96875 351.460938 47.261719 351.292969 C 45.554688 351.121094 43.859375 350.871094 42.179688 350.535156 C 40.496094 350.199219 38.835938 349.78125 37.191406 349.28125 C 35.550781 348.78125 33.9375 348.203125 32.355469 347.546875 C 30.769531 346.890625 29.222656 346.15625 27.707031 345.347656 C 26.195312 344.539062 24.726562 343.65625 23.300781 342.703125 C 21.875 341.75 20.5 340.730469 19.171875 339.640625 C 17.847656 338.550781 16.578125 337.402344 15.363281 336.1875 C 14.152344 334.976562 13 333.707031 11.910156 332.378906 C 10.824219 331.054688 9.800781 329.679688 8.847656 328.25 C 7.894531 326.824219 7.011719 325.355469 6.203125 323.84375 C 5.394531 322.332031 4.660156 320.78125 4.003906 319.199219 C 3.347656 317.613281 2.769531 316 2.269531 314.359375 C 1.769531 312.71875 1.351562 311.054688 1.015625 309.375 C 0.679688 307.691406 0.425781 305.996094 0.257812 304.289062 C 0.0859375 302.582031 0 300.871094 0 299.15625 L 0 236.25 C 0 235.722656 0.0273438 235.191406 0.078125 234.664062 C 0.128906 234.140625 0.207031 233.617188 0.308594 233.097656 C 0.414062 232.578125 0.542969 232.0625 0.695312 231.558594 C 0.847656 231.050781 1.027344 230.550781 1.230469 230.0625 C 1.429688 229.574219 1.65625 229.097656 1.90625 228.628906 C 2.15625 228.160156 2.429688 227.707031 2.722656 227.269531 C 3.015625 226.828125 3.332031 226.402344 3.667969 225.992188 C 4.003906 225.582031 4.359375 225.191406 4.730469 224.816406 C 5.105469 224.441406 5.5 224.085938 5.90625 223.75 C 6.316406 223.414062 6.742188 223.101562 7.183594 222.804688 C 7.621094 222.511719 8.074219 222.238281 8.542969 221.992188 C 9.007812 221.742188 9.488281 221.515625 9.976562 221.3125 C 10.464844 221.109375 10.964844 220.929688 11.46875 220.777344 C 11.976562 220.625 12.492188 220.496094 13.007812 220.390625 C 13.527344 220.289062 14.050781 220.210938 14.578125 220.160156 C 15.105469 220.105469 15.632812 220.082031 16.164062 220.082031 C 16.691406 220.082031 17.222656 220.105469 17.75 220.160156 C 18.273438 220.210938 18.796875 220.289062 19.316406 220.390625 C 19.835938 220.496094 20.351562 220.625 20.855469 220.777344 C 21.363281 220.929688 21.863281 221.109375 22.351562 221.3125 C 22.839844 221.515625 23.316406 221.742188 23.785156 221.992188 C 24.25 222.238281 24.707031 222.511719 25.144531 222.804688 C 25.585938 223.101562 26.011719 223.414062 26.417969 223.75 C 26.828125 224.085938 27.222656 224.441406 27.59375 224.816406 C 27.96875 225.191406 28.324219 225.582031 28.660156 225.992188 C 28.996094 226.402344 29.3125 226.828125 29.605469 227.269531 C 29.898438 227.707031 30.171875 228.160156 30.421875 228.628906 C 30.671875 229.097656 30.894531 229.574219 31.097656 230.0625 C 31.300781 230.550781 31.480469 231.050781 31.632812 231.558594 C 31.785156 232.0625 31.914062 232.578125 32.019531 233.097656 C 32.121094 233.617188 32.199219 234.140625 32.25 234.664062 C 32.300781 235.191406 32.328125 235.722656 32.328125 236.25 L 32.328125 296.328125 C 32.328125 297.078125 32.367188 297.824219 32.441406 298.570312 C 32.515625 299.316406 32.625 300.058594 32.773438 300.792969 C 32.917969 301.527344 33.101562 302.253906 33.320312 302.972656 C 33.539062 303.6875 33.792969 304.394531 34.078125 305.085938 C 34.367188 305.777344 34.6875 306.453125 35.039062 307.117188 C 35.394531 307.777344 35.777344 308.417969 36.195312 309.042969 C 36.613281 309.664062 37.058594 310.265625 37.535156 310.84375 C 38.011719 311.425781 38.511719 311.980469 39.042969 312.507812 C 39.574219 313.039062 40.128906 313.542969 40.707031 314.015625 C 41.285156 314.492188 41.886719 314.9375 42.511719 315.355469 C 43.132812 315.773438 43.777344 316.15625 44.4375 316.511719 C 45.097656 316.863281 45.773438 317.183594 46.46875 317.472656 C 47.160156 317.757812 47.863281 318.011719 48.582031 318.230469 C 49.300781 318.449219 50.023438 318.632812 50.761719 318.777344 C 51.496094 318.925781 52.234375 319.035156 52.980469 319.109375 C 53.726562 319.183594 54.476562 319.222656 55.226562 319.222656 L 319.773438 319.222656 C 320.523438 319.222656 321.273438 319.183594 322.019531 319.109375 C 322.765625 319.035156 323.503906 318.925781 324.238281 318.777344 C 324.972656 318.632812 325.699219 318.449219 326.417969 318.230469 C 327.136719 318.011719 327.839844 317.757812 328.53125 317.472656 C 329.226562 317.183594 329.902344 316.863281 330.5625 316.511719 C 331.222656 316.15625 331.867188 315.773438 332.488281 315.355469 C 333.113281 314.9375 333.714844 314.492188 334.292969 314.015625 C 334.871094 313.542969 335.425781 313.039062 335.957031 312.507812 C 336.488281 311.980469 336.988281 311.425781 337.464844 310.84375 C 337.941406 310.265625 338.386719 309.664062 338.804688 309.042969 C 339.222656 308.417969 339.605469 307.777344 339.960938 307.117188 C 340.3125 306.453125 340.632812 305.777344 340.921875 305.085938 C 341.207031 304.394531 341.460938 303.6875 341.679688 302.972656 C 341.898438 302.253906 342.082031 301.527344 342.226562 300.792969 C 342.375 300.058594 342.484375 299.316406 342.558594 298.570312 C 342.632812 297.824219 342.671875 297.078125 342.671875 296.328125 L 342.671875 236.25 C 342.671875 235.722656 342.699219 235.191406 342.75 234.667969 C 342.800781 234.140625 342.878906 233.617188 342.984375 233.097656 C 343.085938 232.578125 343.214844 232.066406 343.367188 231.558594 C 343.523438 231.050781 343.699219 230.554688 343.902344 230.066406 C 344.105469 229.574219 344.332031 229.097656 344.582031 228.632812 C 344.832031 228.164062 345.101562 227.710938 345.398438 227.269531 C 345.691406 226.832031 346.003906 226.40625 346.339844 225.996094 C 346.675781 225.585938 347.03125 225.195312 347.40625 224.820312 C 347.78125 224.445312 348.171875 224.089844 348.582031 223.753906 C 348.992188 223.417969 349.414062 223.105469 349.855469 222.8125 C 350.296875 222.515625 350.75 222.246094 351.214844 221.996094 C 351.683594 221.746094 352.160156 221.519531 352.652344 221.316406 C 353.140625 221.113281 353.636719 220.9375 354.144531 220.78125 C 354.652344 220.628906 355.164062 220.5 355.683594 220.398438 C 356.203125 220.292969 356.726562 220.214844 357.25 220.164062 C 357.777344 220.113281 358.308594 220.085938 358.835938 220.085938 C 359.367188 220.085938 359.894531 220.113281 360.421875 220.164062 C 360.949219 220.214844 361.46875 220.292969 361.988281 220.398438 C 362.507812 220.5 363.023438 220.628906 363.527344 220.78125 C 364.035156 220.9375 364.53125 221.113281 365.023438 221.316406 C 365.511719 221.519531 365.988281 221.746094 366.457031 221.996094 C 366.921875 222.246094 367.375 222.515625 367.816406 222.8125 C 368.257812 223.105469 368.679688 223.417969 369.089844 223.753906 C 369.5 224.089844 369.890625 224.445312 370.265625 224.820312 C 370.640625 225.195312 370.996094 225.585938 371.332031 225.996094 C 371.667969 226.40625 371.980469 226.832031 372.277344 227.269531 C 372.570312 227.710938 372.839844 228.164062 373.089844 228.632812 C 373.339844 229.097656 373.566406 229.574219 373.769531 230.066406 C 373.972656 230.554688 374.148438 231.050781 374.304688 231.558594 C 374.457031 232.066406 374.585938 232.578125 374.6875 233.097656 C 374.792969 233.617188 374.871094 234.140625 374.921875 234.667969 C 374.972656 235.191406 375 235.722656 375 236.25 Z M 135.460938 121.203125 L 166.222656 90.441406 C 166.683594 89.980469 167.234375 89.683594 167.875 89.558594 C 168.519531 89.429688 169.140625 89.492188 169.746094 89.742188 C 170.347656 89.992188 170.832031 90.386719 171.195312 90.929688 C 171.558594 91.476562 171.738281 92.074219 171.738281 92.726562 L 171.738281 244.917969 C 171.738281 245.449219 171.765625 245.976562 171.816406 246.503906 C 171.871094 247.03125 171.949219 247.554688 172.050781 248.074219 C 172.152344 248.59375 172.28125 249.105469 172.4375 249.613281 C 172.589844 250.117188 172.769531 250.617188 172.96875 251.105469 C 173.171875 251.59375 173.398438 252.070312 173.648438 252.539062 C 173.898438 253.007812 174.171875 253.460938 174.464844 253.898438 C 174.757812 254.339844 175.074219 254.765625 175.410156 255.171875 C 175.746094 255.582031 176.101562 255.976562 176.472656 256.347656 C 176.847656 256.722656 177.242188 257.078125 177.648438 257.414062 C 178.058594 257.75 178.484375 258.066406 178.921875 258.359375 C 179.363281 258.652344 179.816406 258.925781 180.285156 259.175781 C 180.75 259.425781 181.230469 259.648438 181.71875 259.851562 C 182.207031 260.054688 182.707031 260.234375 183.210938 260.386719 C 183.71875 260.539062 184.230469 260.667969 184.75 260.773438 C 185.269531 260.875 185.792969 260.953125 186.320312 261.003906 C 186.847656 261.058594 187.375 261.082031 187.902344 261.082031 C 188.433594 261.082031 188.960938 261.058594 189.488281 261.003906 C 190.015625 260.953125 190.539062 260.875 191.058594 260.773438 C 191.578125 260.667969 192.089844 260.539062 192.597656 260.386719 C 193.101562 260.234375 193.601562 260.054688 194.089844 259.851562 C 194.578125 259.648438 195.058594 259.425781 195.523438 259.175781 C 195.992188 258.925781 196.445312 258.652344 196.882812 258.359375 C 197.324219 258.066406 197.75 257.75 198.160156 257.414062 C 198.566406 257.078125 198.960938 256.722656 199.332031 256.347656 C 199.707031 255.976562 200.0625 255.582031 200.398438 255.171875 C 200.734375 254.765625 201.050781 254.339844 201.34375 253.898438 C 201.636719 253.460938 201.910156 253.007812 202.160156 252.539062 C 202.410156 252.070312 202.636719 251.59375 202.835938 251.105469 C 203.039062 250.617188 203.21875 250.117188 203.371094 249.613281 C 203.527344 249.105469 203.652344 248.59375 203.757812 248.074219 C 203.859375 247.554688 203.9375 247.03125 203.988281 246.503906 C 204.042969 245.976562 204.066406 245.449219 204.066406 244.917969 L 204.066406 93.535156 C 204.066406 92.882812 204.25 92.28125 204.613281 91.738281 C 204.976562 91.195312 205.457031 90.796875 206.0625 90.550781 C 206.667969 90.304688 207.289062 90.242188 207.929688 90.371094 C 208.570312 90.5 209.121094 90.792969 209.585938 91.25 L 239.539062 121.203125 C 240.300781 121.933594 241.125 122.582031 242.011719 123.152344 C 242.898438 123.722656 243.832031 124.207031 244.8125 124.597656 C 245.789062 124.992188 246.796875 125.289062 247.832031 125.488281 C 248.867188 125.6875 249.914062 125.785156 250.96875 125.785156 C 252.023438 125.785156 253.066406 125.6875 254.101562 125.488281 C 255.140625 125.289062 256.144531 124.992188 257.125 124.597656 C 258.105469 124.207031 259.035156 123.722656 259.921875 123.152344 C 260.808594 122.582031 261.632812 121.933594 262.394531 121.203125 C 262.769531 120.828125 263.125 120.4375 263.460938 120.027344 C 263.792969 119.617188 264.109375 119.191406 264.402344 118.753906 C 264.695312 118.3125 264.96875 117.859375 265.214844 117.390625 C 265.464844 116.925781 265.691406 116.445312 265.890625 115.957031 C 266.09375 115.46875 266.273438 114.972656 266.425781 114.464844 C 266.578125 113.957031 266.707031 113.445312 266.808594 112.925781 C 266.914062 112.40625 266.992188 111.886719 267.042969 111.359375 C 267.09375 110.832031 267.121094 110.304688 267.121094 109.773438 C 267.121094 109.246094 267.09375 108.71875 267.042969 108.191406 C 266.992188 107.664062 266.914062 107.140625 266.808594 106.625 C 266.707031 106.105469 266.578125 105.589844 266.425781 105.085938 C 266.273438 104.578125 266.09375 104.082031 265.890625 103.59375 C 265.691406 103.101562 265.464844 102.625 265.214844 102.160156 C 264.96875 101.691406 264.695312 101.238281 264.402344 100.796875 C 264.109375 100.355469 263.792969 99.933594 263.460938 99.523438 C 263.125 99.113281 262.769531 98.722656 262.394531 98.347656 L 187.5 23.449219 L 112.605469 98.347656 C 112.230469 98.722656 111.875 99.113281 111.539062 99.523438 C 111.207031 99.933594 110.890625 100.355469 110.597656 100.796875 C 110.304688 101.238281 110.03125 101.691406 109.785156 102.160156 C 109.535156 102.625 109.308594 103.101562 109.109375 103.59375 C 108.90625 104.082031 108.726562 104.578125 108.574219 105.085938 C 108.421875 105.589844 108.292969 106.105469 108.191406 106.625 C 108.085938 107.140625 108.007812 107.664062 107.957031 108.191406 C 107.90625 108.71875 107.878906 109.246094 107.878906 109.773438 C 107.878906 110.304688 107.90625 110.832031 107.957031 111.359375 C 108.007812 111.886719 108.085938 112.40625 108.191406 112.925781 C 108.292969 113.445312 108.421875 113.957031 108.574219 114.464844 C 108.726562 114.972656 108.90625 115.46875 109.109375 115.957031 C 109.308594 116.445312 109.535156 116.925781 109.785156 117.390625 C 110.03125 117.859375 110.304688 118.3125 110.597656 118.753906 C 110.890625 119.191406 111.207031 119.617188 111.539062 120.027344 C 111.875 120.4375 112.230469 120.828125 112.605469 121.203125 C 113.367188 121.933594 114.191406 122.582031 115.078125 123.152344 C 115.964844 123.722656 116.894531 124.207031 117.875 124.597656 C 118.855469 124.992188 119.859375 125.289062 120.898438 125.488281 C 121.933594 125.6875 122.976562 125.785156 124.03125 125.785156 C 125.085938 125.785156 126.132812 125.6875 127.167969 125.488281 C 128.203125 125.289062 129.210938 124.992188 130.1875 124.597656 C 131.167969 124.207031 132.101562 123.722656 132.988281 123.152344 C 133.875 122.582031 134.699219 121.933594 135.460938 121.203125 Z M 135.460938 121.203125 "/></g></svg>